<svg xmlns="http://www.w3.org/2000/svg" width="233" height="48" viewBox="0 0 233 48">
    <g fill="none" fill-rule="evenodd">
        <path fill="#3D7DB7" d="M20 0L0 11.902 10.298 18 20 12.215z" transform="translate(.5 .773)"/>
        <path fill="#005DAC" d="M29.721 28.834L29.721 28.835 20 34.346 20.016 46 40 34.664 40 23zM20 0L20 12.222 29.723 18 40 11.887z" transform="translate(.5 .773)"/>
        <path fill="#3D7DB7" d="M0 35.129L20 47 19.984 34.769 10.264 29z" transform="translate(.5 .773)"/>
        <path fill="#005DAC" d="M0.031 35L10 29.074 10 17.905 0 12z" transform="translate(.5 .773)"/>
        <path fill="#999B9E" d="M20 12L30 17.667 30 29 20 23.334z" transform="translate(.5 .773)"/>
        <path fill="#5D5D60" d="M20 12L10 17.679 10 29 20 23.334 20 12.002" transform="translate(.5 .773)"/>
        <path fill="#FFF" d="M229.39 10.448h-.273v.89h.265c.477 0 .611-.14.611-.463 0-.316-.22-.427-.603-.427m1.021 2.434h-.25c-.05 0-.087-.015-.11-.052-.065-.117-.117-.212-.198-.352-.208-.331-.316-.515-.484-.699-.038-.044-.09-.08-.163-.08h-.09v1.036c0 .074-.056.14-.13.14h-.171c-.073 0-.14-.066-.14-.14v-2.508c0-.072.067-.132.14-.132h.707c.625 0 .927.36.927.772 0 .39-.222.75-.72.765.138.073.448.507.778 1.095.037.067.015.155-.096.155m-.91-3.522c-1.148 0-2.06.926-2.06 2.14 0 1.213.912 2.14 2.06 2.14 1.146 0 2.057-.927 2.057-2.14 0-1.214-.91-2.14-2.058-2.14m0 4.64c-1.368 0-2.5-1.073-2.5-2.5s1.132-2.5 2.5-2.5c1.361 0 2.5 1.073 2.5 2.5s-1.139 2.5-2.5 2.5" transform="translate(.5 .773)"/>
        <g>
            <path fill="#3165BD" d="M174.483.783l-8.238 9.44c2.842 3.08 6.12 6.674 8.932 9.839v.343h-7.106l-5.8-6.646v6.646h-5.746V.44h5.745V7c1.74-2.11 3.626-4.449 5.337-6.559h6.876v.342z" transform="translate(.5 .773) translate(50 12)"/>
            <path fill="#000" d="M18.513 17.838c-2.089 2.025-4.786 2.966-7.629 2.966C3.516 20.804.21 15.814.18 10.565.152 5.318 3.632.1 10.884.1c2.727 0 5.367.998 7.426 3.022l-2.175 2.054c-1.45-1.398-3.365-2.054-5.25-2.054-5.164 0-7.514 3.737-7.485 7.416.028 3.65 2.234 7.273 7.484 7.273 1.886 0 3.974-.77 5.397-2.168l2.232 2.196zM30.435 9.253L36.207.441 40.124.441 40.124.584 32.059 12.22 32.059 20.405 28.81 20.405 28.81 12.22 20.979.584 20.979.441 24.836.441zM47.636 17.439h6.091c1.799 0 4.293-.572 4.293-2.766 0-2.14-2.408-3.11-4.264-3.11h-6.12v5.876zm0-8.727h6.12c2.437 0 3.655-.942 3.655-2.51 0-1.398-1.247-2.88-3.684-2.88h-6.091v5.39zm6.091-8.27c3.858 0 6.904 1.739 6.904 5.703 0 1.683-.9 3.194-2.814 3.964 2.437.713 3.452 3.08 3.452 4.591 0 4.365-3.54 5.705-7.542 5.705h-9.312V.44h9.312zM81.631 20.405L66.634 20.405 66.634.441 81.544.441 81.544 3.549 69.883 3.549 69.883 8.94 81.08 8.94 81.08 11.906 69.883 11.906 69.883 17.267 81.631 17.267zM90.507 3.35v7.244h6.178c2.7 0 3.888-1.683 3.888-3.565 0-1.797-1.189-3.68-3.859-3.68h-6.207zm14.271 17.055h-3.8l-6.18-6.902h-4.29v6.902h-3.25V.412c3.16 0 6.294.029 9.456.029 4.7 0 7.166 3.166 7.166 6.532 0 2.851-1.509 5.646-5.511 6.217l6.06 6.644.349.571z" transform="translate(.5 .773) translate(50 12)"/>
            <path fill="#3165BD" d="M118.616 6.03l-2.61 6.36h5.19l-2.58-6.36zm4.524 11.094h-9.078l-1.337 3.28h-6.09L115.744.442h5.803l9.078 19.964h-6.15l-1.334-3.28zM139.443 4.947v4.791h4.233c1.509 0 2.175-1.112 2.175-2.31 0-1.255-.723-2.481-2.233-2.481h-4.175zm13.052 15.458h-6.323l-4.728-6.474h-2.001v6.474h-5.744V.44h9.919c5.193 0 7.89 3.28 7.89 6.873 0 2.453-.87 4.534-4.292 6.018l5.279 6.73v.343z" transform="translate(.5 .773) translate(50 12)"/>
        </g>
    </g>
</svg>
